PathFileType	4	(X/Y/Z)	Kaydara	
DataRate	CameraRate	NumFrames	NumMarkers	Units	OrigDataRate	OrigDataStartFrame	OrigNumFrames	
60.00	60.00	4	74	mm	60.00	453	98	
Frame#	Time	Y_rasi			Y_rpsi			Y_lpsi			Y_fneck			Y_bneck			Y_fhead			Y_rhead			Y_rshld			Y_relbtop			Y_relbext			Y_relblow			Y_rwrext			Y_rwrtop			Y_rwrlow			Y_lshld			Y_lelbext			Y_lelblow			Y_lelbtop			Y_lwrext			Y_lwrtop			Y_lwrlow			Y_rtopleg			Y_ltopleg			Y_rkneefr			Y_rkneebk			Y_rkneeis			Y_lkneefr			Y_lknssbk			Y_lkneeis			Y_rankfr			Y_rankis			Y_rankbk			Y_lankfr			Y_lankbk			Y_lankis			Y_lhead			Y_lasi			D_rpsi			D_lpsi			D_fneck			D_bneck			D_fhead			D_rhead			D_lhead			D_rshld			D_relbtop			D_relbext			D_relblow			D_rwrext			D_rwrtop			D_rwrlow			D_lshld			D_lelbext			D_lelblow			D_lelbtop			D_lwrext			D_lwrtop			D_lwrlow			D_rtopleg			D_ltopleg			D_rkneefr			D_rkneebk			D_rkneeis			D_lkneefr			D_lknssbk			D_lkneeis			D_rankfr			D_rankis			D_rankbk			D_lankfr			D_lankbk			D_lankis			D_lasi			D_rasi			
		X1	Y1	Z1	X2	Y2	Z2	X3	Y3	Z3	X4	Y4	Z4	X5	Y5	Z5	X6	Y6	Z6	X7	Y7	Z7	X8	Y8	Z8	X9	Y9	Z9	X10	Y10	Z10	X11	Y11	Z11	X12	Y12	Z12	X13	Y13	Z13	X14	Y14	Z14	X15	Y15	Z15	X16	Y16	Z16	X17	Y17	Z17	X18	Y18	Z18	X19	Y19	Z19	X20	Y20	Z20	X21	Y21	Z21	X22	Y22	Z22	X23	Y23	Z23	X24	Y24	Z24	X25	Y25	Z25	X26	Y26	Z26	X27	Y27	Z27	X28	Y28	Z28	X29	Y29	Z29	X30	Y30	Z30	X31	Y31	Z31	X32	Y32	Z32	X33	Y33	Z33	X34	Y34	Z34	X35	Y35	Z35	X36	Y36	Z36	X37	Y37	Z37	X38	Y38	Z38	X39	Y39	Z39	X40	Y40	Z40	X41	Y41	Z41	X42	Y42	Z42	X43	Y43	Z43	X44	Y44	Z44	X45	Y45	Z45	X46	Y46	Z46	X47	Y47	Z47	X48	Y48	Z48	X49	Y49	Z49	X50	Y50	Z50	X51	Y51	Z51	X52	Y52	Z52	X53	Y53	Z53	X54	Y54	Z54	X55	Y55	Z55	X56	Y56	Z56	X57	Y57	Z57	X58	Y58	Z58	X59	Y59	Z59	X60	Y60	Z60	X61	Y61	Z61	X62	Y62	Z62	X63	Y63	Z63	X64	Y64	Z64	X65	Y65	Z65	X66	Y66	Z66	X67	Y67	Z67	X68	Y68	Z68	X69	Y69	Z69	X70	Y70	Z70	X71	Y71	Z71	X72	Y72	Z72	X73	Y73	Z73	X74	Y74	Z74	

86	7.533	-547.64462	1086.71547	-128.14468	-530.58975	1071.63757	-310.10944	-309.15363	1062.93831	-226.19320	-459.20856	1438.21762	-147.83433	-370.65613	1482.66846	-222.64578	-509.64058	1643.72055	-98.48356	-460.40821	1575.55695	-256.69209	-590.14126	1424.04510	-281.28586	-626.44787	1108.23883	-320.32135	-629.68357	1126.52191	-376.49529	-561.83990	1106.96419	-373.49129	-658.93028	843.52798	-329.89044	-693.50929	857.87277	-309.32137	-679.53964	867.74551	-266.75718	-239.58282	1384.43558	-88.82136	-167.55516	1076.42159	-139.95029	-217.24789	1066.15166	-171.36097	-214.97265	1078.49579	-98.49561	-213.66650	818.03032	-104.09039	-210.62923	824.02626	-60.19942	-253.84073	836.56784	-51.84840	-605.52933	914.72275	-276.06831	-278.01178	905.43869	-118.93272	-629.04709	413.77953	-277.93064	-603.52947	456.87977	-352.23656	-534.04869	416.79585	-264.39041	-328.03741	474.74026	-114.64573	-261.43831	495.93571	-204.99233	-382.24392	471.13155	-194.63364	-629.32465	142.89228	-328.57456	-558.98842	133.14434	-339.45614	-599.08573	137.36211	-393.99036	-273.32144	132.11557	-170.29675	-256.41638	129.87521	-238.03055	-329.60331	127.33540	-208.17616	-352.66376	1572.24030	-147.24731	-398.63876	1073.81714	-72.54806	-932.12776	1179.50768	608.69308	-1077.62482	1194.41948	507.19482	-913.83797	1615.17273	465.65365	-1001.65222	1660.99060	543.81508	-885.12711	1801.31470	338.83976	-911.17226	1809.12064	516.23631	-1035.82710	1797.39883	428.13042	-808.69591	1574.87900	590.98309	-784.01688	1205.74150	575.98911	-725.30289	1215.90164	605.53547	-781.04767	1200.74509	660.30441	-715.41008	934.94041	512.14321	-698.88908	951.85829	476.80653	-736.44424	966.40465	449.99710	-1148.84132	1563.77396	414.10652	-1166.13304	1191.19926	352.13181	-1139.56009	1170.62447	422.26795	-1102.79808	1198.37227	350.30430	-1105.81543	945.86327	310.16432	-1082.87315	964.97437	276.00426	-1042.70218	966.59584	302.47049	-822.89459	1037.83836	599.55379	-1107.98737	1034.51073	393.52886	-822.82669	559.56833	484.55811	-830.69824	560.16315	597.23648	-933.55515	547.92313	524.62585	-1006.77834	471.68747	377.10514	-1095.19829	518.53073	431.31451	-1005.30502	500.80112	490.21149	-834.16924	192.02179	551.15341	-910.50171	186.49612	537.79331	-882.43279	183.93999	618.74317	-1056.77559	163.38474	413.56876	-1075.65277	154.91728	490.63812	-992.48848	164.91505	447.75066	-996.40053	1193.86406	363.18047	-820.84534	1184.53796	472.10186 
87	7.550	-547.31377	1086.67084	-128.65935	-530.38181	1071.63445	-310.30172	-308.96463	1062.90939	-226.24208	-459.26125	1438.23120	-148.11825	-370.60127	1482.71713	-222.94540	-509.66160	1643.66272	-98.86648	-460.43583	1575.50964	-257.13291	-590.03582	1423.98758	-281.74681	-625.94315	1108.11493	-321.01189	-629.40674	1126.46873	-376.97075	-561.44035	1106.88545	-373.84907	-658.34534	843.23700	-331.25294	-693.18474	857.51976	-310.75098	-679.27391	867.42348	-268.09546	-239.64758	1384.48334	-88.84744	-167.41894	1076.62415	-140.16316	-217.02873	1066.34743	-171.70582	-214.88712	1078.46535	-98.74655	-212.91033	817.88826	-105.30785	-209.57987	823.77892	-61.81151	-253.87674	835.70534	-57.95619	-605.30472	914.76341	-276.44051	-278.02843	905.43983	-118.93546	-629.04716	413.77934	-278.05307	-603.47618	456.89064	-352.37514	-534.05525	416.81732	-264.48744	-328.06561	474.74190	-114.46669	-261.46290	495.92472	-204.83120	-382.24434	471.13022	-194.52953	-629.30786	142.89478	-328.61759	-559.18816	133.05391	-339.35627	-599.09168	137.32896	-394.00375	-273.32977	132.10673	-170.27363	-256.39553	129.86161	-238.00791	-329.59259	127.32823	-208.18924	-352.66335	1572.31903	-147.58493	-398.69274	1073.87833	-72.70120	-931.81465	1179.55498	608.36731	-1077.21977	1194.33640	506.75255	-913.54813	1615.30899	464.99844	-1001.60843	1660.96176	543.25054	-885.06943	1801.54480	338.70670	-911.28693	1809.16016	516.21536	-1035.85426	1797.57629	427.94281	-808.62610	1575.10132	590.37666	-783.67363	1205.98572	575.09888	-724.91272	1216.06346	604.78603	-780.54367	1200.88531	659.60464	-715.33081	935.06737	511.38630	-698.59787	951.97495	476.12247	-735.97679	966.61865	449.20204	-1148.66348	1563.64960	413.55858	-1165.48630	1191.06964	351.28559	-1139.03587	1170.53497	421.44718	-1102.16187	1198.22281	349.69303	-1104.96193	945.86494	309.42127	-1082.08519	965.03036	275.23020	-1041.93100	966.45638	302.09732	-822.49275	1037.80945	599.22695	-1107.43103	1034.48013	393.01147	-822.53212	559.46510	484.26109	-830.43747	560.11089	596.91208	-933.29666	547.94064	524.29440	-1006.48369	471.70483	376.64448	-1094.93233	518.54214	431.02722	-1005.14626	501.04538	490.20958	-834.14864	191.98799	551.14658	-910.49057	186.51230	537.78549	-882.40387	184.02103	618.69354	-1056.64238	163.37746	413.44269	-1075.49133	155.02459	490.56782	-992.49382	164.73076	447.65602	-996.03477	1193.81889	362.74807	-820.59998	1184.55223	471.89888 
88	7.567	-547.05109	1086.63025	-129.12707	-530.17017	1071.66641	-310.46139	-308.79980	1062.88147	-226.35868	-459.28303	1438.23349	-148.42188	-370.56351	1482.72873	-223.23895	-509.70280	1643.59116	-99.21576	-460.45235	1575.45517	-257.42086	-589.96063	1423.91388	-282.25561	-625.70160	1108.00552	-321.58035	-629.16199	1126.41869	-377.45068	-561.10371	1106.84364	-374.22871	-657.70790	843.01231	-332.44480	-693.26614	857.31438	-311.47314	-679.27696	866.99600	-269.61386	-239.62051	1384.52164	-88.92993	-167.25338	1076.79062	-140.36448	-216.78572	1066.52245	-172.03304	-214.94711	1078.38196	-99.16995	-212.09581	817.89337	-106.64507	-208.94470	823.63358	-62.89337	-253.23357	835.38475	-58.85732	-605.10151	914.82399	-276.78415	-278.00480	905.45776	-118.99210	-629.10210	413.91785	-278.11777	-603.38600	456.89690	-352.48466	-533.99487	416.83388	-264.59295	-328.07983	474.77428	-114.39219	-261.47430	495.88947	-204.69706	-382.29206	471.12213	-194.41769	-629.27387	142.89454	-328.67100	-559.17614	133.06178	-339.36424	-599.07875	137.30054	-394.03069	-273.31387	132.09784	-170.24469	-256.82150	129.73221	-237.54547	-329.61952	127.33010	-208.17068	-352.64015	1572.37640	-147.94456	-398.74741	1073.97995	-72.85235	-931.55533	1179.56421	608.04516	-1076.89232	1194.28421	506.38420	-913.10310	1615.52826	464.78790	-1001.60423	1660.93842	542.81212	-884.95651	1801.67572	338.62259	-911.40068	1809.19327	516.09795	-1035.87074	1797.62787	427.72457	-808.48122	1575.19379	589.77711	-783.31345	1206.06544	574.42585	-724.50806	1216.20926	603.72906	-779.79416	1201.01234	658.87680	-715.11436	935.08018	510.62893	-698.32680	952.00821	475.30693	-735.69298	966.65520	448.35068	-1148.37891	1563.45566	412.97874	-1164.99344	1190.92628	350.79067	-1138.65944	1170.47531	420.95291	-1101.63956	1198.12454	349.19998	-1104.10789	945.79605	308.72843	-1081.14098	965.04593	274.57804	-1040.72105	966.27846	302.00216	-822.13654	1037.73338	598.88298	-1106.96640	1034.44557	392.56630	-821.91788	559.35478	483.66203	-830.24010	560.06824	596.47278	-932.77382	547.89093	523.63739	-1006.24123	471.68106	376.27720	-1094.54918	518.53748	430.67978	-1004.84627	501.05228	489.95743	-834.07822	191.96100	551.00403	-910.43701	186.53404	537.70092	-882.31148	184.05396	618.52638	-1056.54015	163.36397	413.36254	-1075.50941	155.04295	490.47943	-992.54402	164.72454	447.68940	-995.43205	1193.71948	362.34142	-820.06920	1184.61159	471.55556 
89	7.583	-547.31380	1086.75598	-129.27011	-529.93416	1071.65833	-310.61073	-308.57803	1062.85316	-226.52987	-459.31938	1438.22906	-148.76179	-370.48615	1482.81311	-223.49020	-509.75716	1643.51410	-99.51715	-460.50880	1575.41534	-257.63577	-589.91417	1423.87650	-282.69358	-625.58693	1107.91786	-321.99051	-628.92216	1126.36497	-377.94518	-560.82684	1106.81282	-374.62292	-657.14569	842.74750	-333.61584	-692.23732	856.87401	-313.33807	-678.87894	866.93810	-270.53988	-239.64371	1384.57016	-88.99292	-167.06347	1076.93779	-140.59627	-216.60053	1066.65993	-172.31125	-214.84953	1078.41354	-99.48179	-211.65308	817.90550	-107.35929	-208.72185	823.55766	-63.61130	-252.75841	835.43884	-57.98762	-604.93782	914.84322	-277.08981	-277.99339	905.46013	-119.02592	-629.68361	414.10995	-277.78173	-603.29742	456.88763	-352.60323	-533.94894	416.86516	-264.67957	-328.13919	474.85905	-114.30330	-261.47795	495.89470	-204.62948	-382.28458	471.09989	-194.36991	-629.26640	142.88962	-328.69946	-558.85380	133.11225	-339.55193	-599.15627	137.23582	-393.97179	-273.32516	132.06367	-170.24414	-256.80172	129.73097	-237.55592	-329.57260	127.30417	-208.21110	-352.68848	1572.40692	-148.35574	-398.77659	1073.99414	-73.07706	-931.13266	1179.54773	607.64145	-1076.54129	1194.24652	505.92716	-913.14117	1615.42755	464.15123	-1001.33080	1660.84991	542.34341	-884.77692	1801.62659	338.46481	-911.56021	1809.23492	515.94204	-1035.87959	1797.64374	427.45720	-808.35541	1575.20401	589.32484	-782.91122	1206.05232	573.64731	-724.13422	1216.21033	602.63885	-779.15482	1201.06857	657.98370	-714.60747	935.17914	509.70680	-698.09761	951.90697	474.24774	-735.63156	966.56364	447.49424	-1148.18039	1563.24219	412.49626	-1164.39056	1190.71381	350.27653	-1138.11966	1170.26268	420.41931	-1100.97290	1198.08334	348.72604	-1103.25302	945.67108	308.15090	-1080.20760	964.96735	274.04888	-1039.98627	966.41594	301.22797	-821.82251	1037.64481	598.59547	-1106.42822	1034.42886	392.09145	-821.40823	559.26525	483.09654	-829.92279	560.00721	595.90538	-931.68587	547.48901	522.62054	-1006.03958	471.67355	375.92403	-1094.22523	518.56499	430.36812	-1004.42558	500.96619	489.62929	-834.02885	191.86159	550.93758	-910.34126	186.50078	537.47177	-882.31583	184.16401	618.36487	-1056.48163	163.35642	413.32325	-1075.43015	155.08060	490.43411	-992.45506	164.69234	447.64828	-994.93484	1193.66402	361.83392	-819.68956	1184.42352	471.15536 
